<svg width="240" height="40" viewBox="0 0 240 40" fill="none" xmlns="http://www.w3.org/2000/svg">
<rect width="240" height="40" fill="#7289DA"/>
<path d="M50.4375 22.6562H46.3281L45.5469 25H43.0547L47.2891 13.625H49.4609L53.7188 25H51.2266L50.4375 22.6562ZM46.9609 20.7578H49.8047L48.375 16.5L46.9609 20.7578ZM54.2812 20.7109C54.2812 19.3932 54.5755 18.3438 55.1641 17.5625C55.7578 16.7812 56.5677 16.3906 57.5938 16.3906C58.4167 16.3906 59.0964 16.6979 59.6328 17.3125V13H61.8984V25H59.8594L59.75 24.1016C59.1875 24.8047 58.4635 25.1562 57.5781 25.1562C56.5833 25.1562 55.7839 24.7656 55.1797 23.9844C54.5807 23.1979 54.2812 22.1068 54.2812 20.7109ZM56.5391 20.875C56.5391 21.6667 56.6771 22.2734 56.9531 22.6953C57.2292 23.1172 57.6302 23.3281 58.1562 23.3281C58.8542 23.3281 59.3464 23.0339 59.6328 22.4453V19.1094C59.3516 18.5208 58.8646 18.2266 58.1719 18.2266C57.0833 18.2266 56.5391 19.1094 56.5391 20.875ZM63.2969 20.7109C63.2969 19.3932 63.5911 18.3438 64.1797 17.5625C64.7734 16.7812 65.5833 16.3906 66.6094 16.3906C67.4323 16.3906 68.112 16.6979 68.6484 17.3125V13H70.9141V25H68.875L68.7656 24.1016C68.2031 24.8047 67.4792 25.1562 66.5938 25.1562C65.599 25.1562 64.7995 24.7656 64.1953 23.9844C63.5964 23.1979 63.2969 22.1068 63.2969 20.7109ZM65.5547 20.875C65.5547 21.6667 65.6927 22.2734 65.9688 22.6953C66.2448 23.1172 66.6458 23.3281 67.1719 23.3281C67.8698 23.3281 68.362 23.0339 68.6484 22.4453V19.1094C68.3672 18.5208 67.8802 18.2266 67.1875 18.2266C66.099 18.2266 65.5547 19.1094 65.5547 20.875ZM85.7969 23.5625C85.375 24.0677 84.7786 24.4609 84.0078 24.7422C83.237 25.0182 82.3828 25.1562 81.4453 25.1562C80.4609 25.1562 79.5964 24.9427 78.8516 24.5156C78.112 24.0833 77.5391 23.4583 77.1328 22.6406C76.7318 21.8229 76.526 20.862 76.5156 19.7578V18.9844C76.5156 17.849 76.7057 16.8672 77.0859 16.0391C77.4714 15.2057 78.0234 14.5703 78.7422 14.1328C79.4661 13.6901 80.3125 13.4688 81.2812 13.4688C82.6302 13.4688 83.6849 13.7917 84.4453 14.4375C85.2057 15.0781 85.6562 16.013 85.7969 17.2422H83.5156C83.4115 16.5911 83.1797 16.1146 82.8203 15.8125C82.4661 15.5104 81.9766 15.3594 81.3516 15.3594C80.5547 15.3594 79.9479 15.6589 79.5312 16.2578C79.1146 16.8568 78.9036 17.7474 78.8984 18.9297V19.6562C78.8984 20.849 79.125 21.75 79.5781 22.3594C80.0312 22.9688 80.6953 23.2734 81.5703 23.2734C82.4505 23.2734 83.0781 23.0859 83.4531 22.7109V20.75H81.3203V19.0234H85.7969V23.5625ZM89.7578 17.4688C90.3568 16.75 91.1094 16.3906 92.0156 16.3906C93.849 16.3906 94.7786 17.4557 94.8047 19.5859V25H92.5469V19.6484C92.5469 19.1641 92.4427 18.8073 92.2344 18.5781C92.026 18.3438 91.6797 18.2266 91.1953 18.2266C90.5339 18.2266 90.0547 18.4818 89.7578 18.9922V25H87.5V13H89.7578V17.4688ZM96.1562 20.6953C96.1562 19.8568 96.3177 19.1094 96.6406 18.4531C96.9635 17.7969 97.4271 17.2891 98.0312 16.9297C98.6406 16.5703 99.3464 16.3906 100.148 16.3906C101.289 16.3906 102.219 16.7396 102.938 17.4375C103.661 18.1354 104.065 19.0833 104.148 20.2812L104.164 20.8594C104.164 22.1562 103.802 23.1979 103.078 23.9844C102.354 24.7656 101.383 25.1562 100.164 25.1562C98.9453 25.1562 97.9714 24.7656 97.2422 23.9844C96.5182 23.2031 96.1562 22.1406 96.1562 20.7969V20.6953ZM98.4141 20.8594C98.4141 21.6615 98.5651 22.276 98.8672 22.7031C99.1693 23.125 99.6016 23.3359 100.164 23.3359C100.711 23.3359 101.138 23.1276 101.445 22.7109C101.753 22.2891 101.906 21.6172 101.906 20.6953C101.906 19.9089 101.753 19.2995 101.445 18.8672C101.138 18.4349 100.706 18.2188 100.148 18.2188C99.5964 18.2188 99.1693 18.4349 98.8672 18.8672C98.5651 19.2943 98.4141 19.9583 98.4141 20.8594ZM110.133 22.6641C110.133 22.388 109.995 22.1719 109.719 22.0156C109.448 21.8542 109.01 21.7109 108.406 21.5859C106.396 21.1641 105.391 20.3099 105.391 19.0234C105.391 18.2734 105.701 17.6484 106.32 17.1484C106.945 16.6432 107.76 16.3906 108.766 16.3906C109.839 16.3906 110.695 16.6432 111.336 17.1484C111.982 17.6536 112.305 18.3099 112.305 19.1172H110.047C110.047 18.7943 109.943 18.5286 109.734 18.3203C109.526 18.1068 109.201 18 108.758 18C108.378 18 108.083 18.0859 107.875 18.2578C107.667 18.4297 107.562 18.6484 107.562 18.9141C107.562 19.1641 107.68 19.3672 107.914 19.5234C108.154 19.6745 108.555 19.8073 109.117 19.9219C109.68 20.0312 110.154 20.1562 110.539 20.2969C111.732 20.7344 112.328 21.4922 112.328 22.5703C112.328 23.3411 111.997 23.9661 111.336 24.4453C110.674 24.9193 109.82 25.1562 108.773 25.1562C108.065 25.1562 107.435 25.0312 106.883 24.7812C106.336 24.526 105.906 24.1797 105.594 23.7422C105.281 23.2995 105.125 22.8229 105.125 22.3125H107.266C107.286 22.7135 107.435 23.0208 107.711 23.2344C107.987 23.4479 108.357 23.5547 108.82 23.5547C109.253 23.5547 109.578 23.474 109.797 23.3125C110.021 23.1458 110.133 22.9297 110.133 22.6641ZM116.492 14.4688V16.5469H117.938V18.2031H116.492V22.4219C116.492 22.7344 116.552 22.9583 116.672 23.0938C116.792 23.2292 117.021 23.2969 117.359 23.2969C117.609 23.2969 117.831 23.2786 118.023 23.2422V24.9531C117.581 25.0885 117.125 25.1562 116.656 25.1562C115.073 25.1562 114.266 24.3568 114.234 22.7578V18.2031H113V16.5469H114.234V14.4688H116.492ZM122.352 21.8047L123.914 16.5469H126.336L122.938 26.3125L122.75 26.7578C122.245 27.862 121.411 28.4141 120.25 28.4141C119.922 28.4141 119.589 28.3646 119.25 28.2656V26.5547L119.594 26.5625C120.021 26.5625 120.339 26.4974 120.547 26.3672C120.76 26.237 120.927 26.0208 121.047 25.7188L121.312 25.0234L118.352 16.5469H120.781L122.352 21.8047ZM134.844 20.8516C134.844 22.2057 134.555 23.263 133.977 24.0234C133.398 24.7786 132.591 25.1562 131.555 25.1562C130.638 25.1562 129.906 24.8047 129.359 24.1016L129.258 25H127.227V13H129.484V17.3047C130.005 16.6953 130.69 16.3906 131.539 16.3906C132.57 16.3906 133.378 16.7708 133.961 17.5312C134.549 18.2865 134.844 19.3516 134.844 20.7266V20.8516ZM132.586 20.6875C132.586 19.8333 132.451 19.2109 132.18 18.8203C131.909 18.4245 131.505 18.2266 130.969 18.2266C130.25 18.2266 129.755 18.5208 129.484 19.1094V22.4453C129.76 23.0391 130.26 23.3359 130.984 23.3359C131.714 23.3359 132.193 22.9766 132.422 22.2578C132.531 21.9141 132.586 21.3906 132.586 20.6875ZM135.891 20.6953C135.891 19.8568 136.052 19.1094 136.375 18.4531C136.698 17.7969 137.161 17.2891 137.766 16.9297C138.375 16.5703 139.081 16.3906 139.883 16.3906C141.023 16.3906 141.953 16.7396 142.672 17.4375C143.396 18.1354 143.799 19.0833 143.883 20.2812L143.898 20.8594C143.898 22.1562 143.536 23.1979 142.812 23.9844C142.089 24.7656 141.117 25.1562 139.898 25.1562C138.68 25.1562 137.706 24.7656 136.977 23.9844C136.253 23.2031 135.891 22.1406 135.891 20.7969V20.6953ZM138.148 20.8594C138.148 21.6615 138.299 22.276 138.602 22.7031C138.904 23.125 139.336 23.3359 139.898 23.3359C140.445 23.3359 140.872 23.1276 141.18 22.7109C141.487 22.2891 141.641 21.6172 141.641 20.6953C141.641 19.9089 141.487 19.2995 141.18 18.8672C140.872 18.4349 140.44 18.2188 139.883 18.2188C139.331 18.2188 138.904 18.4349 138.602 18.8672C138.299 19.2943 138.148 19.9583 138.148 20.8594ZM147.992 14.4688V16.5469H149.438V18.2031H147.992V22.4219C147.992 22.7344 148.052 22.9583 148.172 23.0938C148.292 23.2292 148.521 23.2969 148.859 23.2969C149.109 23.2969 149.331 23.2786 149.523 23.2422V24.9531C149.081 25.0885 148.625 25.1562 148.156 25.1562C146.573 25.1562 145.766 24.3568 145.734 22.7578V18.2031H144.5V16.5469H145.734V14.4688H147.992ZM157.383 14.4688V16.5469H158.828V18.2031H157.383V22.4219C157.383 22.7344 157.443 22.9583 157.562 23.0938C157.682 23.2292 157.911 23.2969 158.25 23.2969C158.5 23.2969 158.721 23.2786 158.914 23.2422V24.9531C158.471 25.0885 158.016 25.1562 157.547 25.1562C155.964 25.1562 155.156 24.3568 155.125 22.7578V18.2031H153.891V16.5469H155.125V14.4688H157.383ZM159.5 20.6953C159.5 19.8568 159.661 19.1094 159.984 18.4531C160.307 17.7969 160.771 17.2891 161.375 16.9297C161.984 16.5703 162.69 16.3906 163.492 16.3906C164.633 16.3906 165.562 16.7396 166.281 17.4375C167.005 18.1354 167.409 19.0833 167.492 20.2812L167.508 20.8594C167.508 22.1562 167.146 23.1979 166.422 23.9844C165.698 24.7656 164.727 25.1562 163.508 25.1562C162.289 25.1562 161.315 24.7656 160.586 23.9844C159.862 23.2031 159.5 22.1406 159.5 20.7969V20.6953ZM161.758 20.8594C161.758 21.6615 161.909 22.276 162.211 22.7031C162.513 23.125 162.945 23.3359 163.508 23.3359C164.055 23.3359 164.482 23.1276 164.789 22.7109C165.096 22.2891 165.25 21.6172 165.25 20.6953C165.25 19.9089 165.096 19.2995 164.789 18.8672C164.482 18.4349 164.049 18.2188 163.492 18.2188C162.94 18.2188 162.513 18.4349 162.211 18.8672C161.909 19.2943 161.758 19.9583 161.758 20.8594ZM173.031 25V13.625H176.531C177.531 13.625 178.424 13.8516 179.211 14.3047C180.003 14.7526 180.62 15.3932 181.062 16.2266C181.505 17.0547 181.727 17.9974 181.727 19.0547V19.5781C181.727 20.6354 181.508 21.5755 181.07 22.3984C180.638 23.2214 180.026 23.8594 179.234 24.3125C178.443 24.7656 177.549 24.9948 176.555 25H173.031ZM175.375 15.5234V23.1172H176.508C177.424 23.1172 178.125 22.8177 178.609 22.2188C179.094 21.6198 179.341 20.763 179.352 19.6484V19.0469C179.352 17.8906 179.112 17.0156 178.633 16.4219C178.154 15.8229 177.453 15.5234 176.531 15.5234H175.375ZM185.672 25H183.406V16.5469H185.672V25ZM183.273 14.3594C183.273 14.0208 183.385 13.7422 183.609 13.5234C183.839 13.3047 184.148 13.1953 184.539 13.1953C184.924 13.1953 185.232 13.3047 185.461 13.5234C185.69 13.7422 185.805 14.0208 185.805 14.3594C185.805 14.7031 185.688 14.9844 185.453 15.2031C185.224 15.4219 184.919 15.5312 184.539 15.5312C184.159 15.5312 183.852 15.4219 183.617 15.2031C183.388 14.9844 183.273 14.7031 183.273 14.3594ZM192.117 22.6641C192.117 22.388 191.979 22.1719 191.703 22.0156C191.432 21.8542 190.995 21.7109 190.391 21.5859C188.38 21.1641 187.375 20.3099 187.375 19.0234C187.375 18.2734 187.685 17.6484 188.305 17.1484C188.93 16.6432 189.745 16.3906 190.75 16.3906C191.823 16.3906 192.68 16.6432 193.32 17.1484C193.966 17.6536 194.289 18.3099 194.289 19.1172H192.031C192.031 18.7943 191.927 18.5286 191.719 18.3203C191.51 18.1068 191.185 18 190.742 18C190.362 18 190.068 18.0859 189.859 18.2578C189.651 18.4297 189.547 18.6484 189.547 18.9141C189.547 19.1641 189.664 19.3672 189.898 19.5234C190.138 19.6745 190.539 19.8073 191.102 19.9219C191.664 20.0312 192.138 20.1562 192.523 20.2969C193.716 20.7344 194.312 21.4922 194.312 22.5703C194.312 23.3411 193.982 23.9661 193.32 24.4453C192.659 24.9193 191.805 25.1562 190.758 25.1562C190.049 25.1562 189.419 25.0312 188.867 24.7812C188.32 24.526 187.891 24.1797 187.578 23.7422C187.266 23.2995 187.109 22.8229 187.109 22.3125H189.25C189.271 22.7135 189.419 23.0208 189.695 23.2344C189.971 23.4479 190.341 23.5547 190.805 23.5547C191.237 23.5547 191.562 23.474 191.781 23.3125C192.005 23.1458 192.117 22.9297 192.117 22.6641ZM199.289 23.3359C199.706 23.3359 200.044 23.2214 200.305 22.9922C200.565 22.763 200.701 22.4583 200.711 22.0781H202.828C202.823 22.651 202.667 23.1771 202.359 23.6562C202.052 24.1302 201.63 24.5 201.094 24.7656C200.562 25.026 199.974 25.1562 199.328 25.1562C198.12 25.1562 197.167 24.7734 196.469 24.0078C195.771 23.237 195.422 22.1745 195.422 20.8203V20.6719C195.422 19.3698 195.768 18.3307 196.461 17.5547C197.154 16.7786 198.104 16.3906 199.312 16.3906C200.37 16.3906 201.216 16.6927 201.852 17.2969C202.492 17.8958 202.818 18.6953 202.828 19.6953H200.711C200.701 19.2578 200.565 18.9036 200.305 18.6328C200.044 18.3568 199.701 18.2188 199.273 18.2188C198.747 18.2188 198.349 18.4115 198.078 18.7969C197.812 19.1771 197.68 19.7969 197.68 20.6562V20.8906C197.68 21.7604 197.812 22.3854 198.078 22.7656C198.344 23.1458 198.747 23.3359 199.289 23.3359ZM203.766 20.6953C203.766 19.8568 203.927 19.1094 204.25 18.4531C204.573 17.7969 205.036 17.2891 205.641 16.9297C206.25 16.5703 206.956 16.3906 207.758 16.3906C208.898 16.3906 209.828 16.7396 210.547 17.4375C211.271 18.1354 211.674 19.0833 211.758 20.2812L211.773 20.8594C211.773 22.1562 211.411 23.1979 210.688 23.9844C209.964 24.7656 208.992 25.1562 207.773 25.1562C206.555 25.1562 205.581 24.7656 204.852 23.9844C204.128 23.2031 203.766 22.1406 203.766 20.7969V20.6953ZM206.023 20.8594C206.023 21.6615 206.174 22.276 206.477 22.7031C206.779 23.125 207.211 23.3359 207.773 23.3359C208.32 23.3359 208.747 23.1276 209.055 22.7109C209.362 22.2891 209.516 21.6172 209.516 20.6953C209.516 19.9089 209.362 19.2995 209.055 18.8672C208.747 18.4349 208.315 18.2188 207.758 18.2188C207.206 18.2188 206.779 18.4349 206.477 18.8672C206.174 19.2943 206.023 19.9583 206.023 20.8594ZM217.914 18.6641C217.607 18.6224 217.336 18.6016 217.102 18.6016C216.247 18.6016 215.688 18.8906 215.422 19.4688V25H213.164V16.5469H215.297L215.359 17.5547C215.812 16.7786 216.44 16.3906 217.242 16.3906C217.492 16.3906 217.727 16.4245 217.945 16.4922L217.914 18.6641ZM218.5 20.7109C218.5 19.3932 218.794 18.3438 219.383 17.5625C219.977 16.7812 220.786 16.3906 221.812 16.3906C222.635 16.3906 223.315 16.6979 223.852 17.3125V13H226.117V25H224.078L223.969 24.1016C223.406 24.8047 222.682 25.1562 221.797 25.1562C220.802 25.1562 220.003 24.7656 219.398 23.9844C218.799 23.1979 218.5 22.1068 218.5 20.7109ZM220.758 20.875C220.758 21.6667 220.896 22.2734 221.172 22.6953C221.448 23.1172 221.849 23.3281 222.375 23.3281C223.073 23.3281 223.565 23.0339 223.852 22.4453V19.1094C223.57 18.5208 223.083 18.2266 222.391 18.2266C221.302 18.2266 220.758 19.1094 220.758 20.875Z" fill="white"/>
<g filter="url(#filter0_d)">
<path fill-rule="evenodd" clip-rule="evenodd" d="M19.8261 10C20.172 10 20.5038 10.1317 20.7484 10.3661C20.993 10.6005 21.1304 10.9185 21.1304 11.25V18.75H28.9565C29.3024 18.75 29.6342 18.8817 29.8788 19.1161C30.1234 19.3505 30.2609 19.6685 30.2609 20C30.2609 20.3315 30.1234 20.6495 29.8788 20.8839C29.6342 21.1183 29.3024 21.25 28.9565 21.25H21.1304V28.75C21.1304 29.0815 20.993 29.3995 20.7484 29.6339C20.5038 29.8683 20.172 30 19.8261 30C19.4801 30 19.1484 29.8683 18.9038 29.6339C18.6592 29.3995 18.5217 29.0815 18.5217 28.75V21.25H10.6956C10.3497 21.25 10.0179 21.1183 9.77333 20.8839C9.52872 20.6495 9.3913 20.3315 9.3913 20C9.3913 19.6685 9.52872 19.3505 9.77333 19.1161C10.0179 18.8817 10.3497 18.75 10.6956 18.75H18.5217V11.25C18.5217 10.9185 18.6592 10.6005 18.9038 10.3661C19.1484 10.1317 19.4801 10 19.8261 10Z" fill="white"/>
</g>
<defs>
<filter id="filter0_d" x="5.3913" y="10" width="28.8696" height="28" filterUnits="userSpaceOnUse" color-interpolation-filters="sRGB">
<feFlood flood-opacity="0" result="BackgroundImageFix"/>
<feColorMatrix in="SourceAlpha" type="matrix" values="0 0 0 0 0 0 0 0 0 0 0 0 0 0 0 0 0 0 127 0"/>
<feOffset dy="4"/>
<feGaussianBlur stdDeviation="2"/>
<feColorMatrix type="matrix" values="0 0 0 0 0 0 0 0 0 0 0 0 0 0 0 0 0 0 0.25 0"/>
<feBlend mode="normal" in2="BackgroundImageFix" result="effect1_dropShadow"/>
<feBlend mode="normal" in="SourceGraphic" in2="effect1_dropShadow" result="shape"/>
</filter>
</defs>
</svg>
