<svg width="230" height="40" viewBox="0 0 230 40" fill="none" xmlns="http://www.w3.org/2000/svg">
<rect width="230" height="40" fill="#7289DA"/>
<g filter="url(#filter0_d)">
<path d="M44.9375 22.6562H40.8281L40.0469 25H37.5547L41.7891 13.625H43.9609L48.2188 25H45.7266L44.9375 22.6562ZM41.4609 20.7578H44.3047L42.875 16.5L41.4609 20.7578ZM48.7812 20.7109C48.7812 19.3932 49.0755 18.3438 49.6641 17.5625C50.2578 16.7812 51.0677 16.3906 52.0938 16.3906C52.9167 16.3906 53.5964 16.6979 54.1328 17.3125V13H56.3984V25H54.3594L54.25 24.1016C53.6875 24.8047 52.9635 25.1562 52.0781 25.1562C51.0833 25.1562 50.2839 24.7656 49.6797 23.9844C49.0807 23.1979 48.7812 22.1068 48.7812 20.7109ZM51.0391 20.875C51.0391 21.6667 51.1771 22.2734 51.4531 22.6953C51.7292 23.1172 52.1302 23.3281 52.6562 23.3281C53.3542 23.3281 53.8464 23.0339 54.1328 22.4453V19.1094C53.8516 18.5208 53.3646 18.2266 52.6719 18.2266C51.5833 18.2266 51.0391 19.1094 51.0391 20.875ZM57.7969 20.7109C57.7969 19.3932 58.0911 18.3438 58.6797 17.5625C59.2734 16.7812 60.0833 16.3906 61.1094 16.3906C61.9323 16.3906 62.612 16.6979 63.1484 17.3125V13H65.4141V25H63.375L63.2656 24.1016C62.7031 24.8047 61.9792 25.1562 61.0938 25.1562C60.099 25.1562 59.2995 24.7656 58.6953 23.9844C58.0964 23.1979 57.7969 22.1068 57.7969 20.7109ZM60.0547 20.875C60.0547 21.6667 60.1927 22.2734 60.4688 22.6953C60.7448 23.1172 61.1458 23.3281 61.6719 23.3281C62.3698 23.3281 62.862 23.0339 63.1484 22.4453V19.1094C62.8672 18.5208 62.3802 18.2266 61.6875 18.2266C60.599 18.2266 60.0547 19.1094 60.0547 20.875ZM80.2969 23.5625C79.875 24.0677 79.2786 24.4609 78.5078 24.7422C77.737 25.0182 76.8828 25.1562 75.9453 25.1562C74.9609 25.1562 74.0964 24.9427 73.3516 24.5156C72.612 24.0833 72.0391 23.4583 71.6328 22.6406C71.2318 21.8229 71.026 20.862 71.0156 19.7578V18.9844C71.0156 17.849 71.2057 16.8672 71.5859 16.0391C71.9714 15.2057 72.5234 14.5703 73.2422 14.1328C73.9661 13.6901 74.8125 13.4688 75.7812 13.4688C77.1302 13.4688 78.1849 13.7917 78.9453 14.4375C79.7057 15.0781 80.1562 16.013 80.2969 17.2422H78.0156C77.9115 16.5911 77.6797 16.1146 77.3203 15.8125C76.9661 15.5104 76.4766 15.3594 75.8516 15.3594C75.0547 15.3594 74.4479 15.6589 74.0312 16.2578C73.6146 16.8568 73.4036 17.7474 73.3984 18.9297V19.6562C73.3984 20.849 73.625 21.75 74.0781 22.3594C74.5312 22.9688 75.1953 23.2734 76.0703 23.2734C76.9505 23.2734 77.5781 23.0859 77.9531 22.7109V20.75H75.8203V19.0234H80.2969V23.5625ZM84.2578 17.4688C84.8568 16.75 85.6094 16.3906 86.5156 16.3906C88.349 16.3906 89.2786 17.4557 89.3047 19.5859V25H87.0469V19.6484C87.0469 19.1641 86.9427 18.8073 86.7344 18.5781C86.526 18.3438 86.1797 18.2266 85.6953 18.2266C85.0339 18.2266 84.5547 18.4818 84.2578 18.9922V25H82V13H84.2578V17.4688ZM90.6562 20.6953C90.6562 19.8568 90.8177 19.1094 91.1406 18.4531C91.4635 17.7969 91.9271 17.2891 92.5312 16.9297C93.1406 16.5703 93.8464 16.3906 94.6484 16.3906C95.7891 16.3906 96.7188 16.7396 97.4375 17.4375C98.1615 18.1354 98.5651 19.0833 98.6484 20.2812L98.6641 20.8594C98.6641 22.1562 98.3021 23.1979 97.5781 23.9844C96.8542 24.7656 95.8828 25.1562 94.6641 25.1562C93.4453 25.1562 92.4714 24.7656 91.7422 23.9844C91.0182 23.2031 90.6562 22.1406 90.6562 20.7969V20.6953ZM92.9141 20.8594C92.9141 21.6615 93.0651 22.276 93.3672 22.7031C93.6693 23.125 94.1016 23.3359 94.6641 23.3359C95.2109 23.3359 95.638 23.1276 95.9453 22.7109C96.2526 22.2891 96.4062 21.6172 96.4062 20.6953C96.4062 19.9089 96.2526 19.2995 95.9453 18.8672C95.638 18.4349 95.2057 18.2188 94.6484 18.2188C94.0964 18.2188 93.6693 18.4349 93.3672 18.8672C93.0651 19.2943 92.9141 19.9583 92.9141 20.8594ZM104.633 22.6641C104.633 22.388 104.495 22.1719 104.219 22.0156C103.948 21.8542 103.51 21.7109 102.906 21.5859C100.896 21.1641 99.8906 20.3099 99.8906 19.0234C99.8906 18.2734 100.201 17.6484 100.82 17.1484C101.445 16.6432 102.26 16.3906 103.266 16.3906C104.339 16.3906 105.195 16.6432 105.836 17.1484C106.482 17.6536 106.805 18.3099 106.805 19.1172H104.547C104.547 18.7943 104.443 18.5286 104.234 18.3203C104.026 18.1068 103.701 18 103.258 18C102.878 18 102.583 18.0859 102.375 18.2578C102.167 18.4297 102.062 18.6484 102.062 18.9141C102.062 19.1641 102.18 19.3672 102.414 19.5234C102.654 19.6745 103.055 19.8073 103.617 19.9219C104.18 20.0312 104.654 20.1562 105.039 20.2969C106.232 20.7344 106.828 21.4922 106.828 22.5703C106.828 23.3411 106.497 23.9661 105.836 24.4453C105.174 24.9193 104.32 25.1562 103.273 25.1562C102.565 25.1562 101.935 25.0312 101.383 24.7812C100.836 24.526 100.406 24.1797 100.094 23.7422C99.7812 23.2995 99.625 22.8229 99.625 22.3125H101.766C101.786 22.7135 101.935 23.0208 102.211 23.2344C102.487 23.4479 102.857 23.5547 103.32 23.5547C103.753 23.5547 104.078 23.474 104.297 23.3125C104.521 23.1458 104.633 22.9297 104.633 22.6641ZM110.992 14.4688V16.5469H112.438V18.2031H110.992V22.4219C110.992 22.7344 111.052 22.9583 111.172 23.0938C111.292 23.2292 111.521 23.2969 111.859 23.2969C112.109 23.2969 112.331 23.2786 112.523 23.2422V24.9531C112.081 25.0885 111.625 25.1562 111.156 25.1562C109.573 25.1562 108.766 24.3568 108.734 22.7578V18.2031H107.5V16.5469H108.734V14.4688H110.992ZM116.852 21.8047L118.414 16.5469H120.836L117.438 26.3125L117.25 26.7578C116.745 27.862 115.911 28.4141 114.75 28.4141C114.422 28.4141 114.089 28.3646 113.75 28.2656V26.5547L114.094 26.5625C114.521 26.5625 114.839 26.4974 115.047 26.3672C115.26 26.237 115.427 26.0208 115.547 25.7188L115.812 25.0234L112.852 16.5469H115.281L116.852 21.8047ZM129.344 20.8516C129.344 22.2057 129.055 23.263 128.477 24.0234C127.898 24.7786 127.091 25.1562 126.055 25.1562C125.138 25.1562 124.406 24.8047 123.859 24.1016L123.758 25H121.727V13H123.984V17.3047C124.505 16.6953 125.19 16.3906 126.039 16.3906C127.07 16.3906 127.878 16.7708 128.461 17.5312C129.049 18.2865 129.344 19.3516 129.344 20.7266V20.8516ZM127.086 20.6875C127.086 19.8333 126.951 19.2109 126.68 18.8203C126.409 18.4245 126.005 18.2266 125.469 18.2266C124.75 18.2266 124.255 18.5208 123.984 19.1094V22.4453C124.26 23.0391 124.76 23.3359 125.484 23.3359C126.214 23.3359 126.693 22.9766 126.922 22.2578C127.031 21.9141 127.086 21.3906 127.086 20.6875ZM130.391 20.6953C130.391 19.8568 130.552 19.1094 130.875 18.4531C131.198 17.7969 131.661 17.2891 132.266 16.9297C132.875 16.5703 133.581 16.3906 134.383 16.3906C135.523 16.3906 136.453 16.7396 137.172 17.4375C137.896 18.1354 138.299 19.0833 138.383 20.2812L138.398 20.8594C138.398 22.1562 138.036 23.1979 137.312 23.9844C136.589 24.7656 135.617 25.1562 134.398 25.1562C133.18 25.1562 132.206 24.7656 131.477 23.9844C130.753 23.2031 130.391 22.1406 130.391 20.7969V20.6953ZM132.648 20.8594C132.648 21.6615 132.799 22.276 133.102 22.7031C133.404 23.125 133.836 23.3359 134.398 23.3359C134.945 23.3359 135.372 23.1276 135.68 22.7109C135.987 22.2891 136.141 21.6172 136.141 20.6953C136.141 19.9089 135.987 19.2995 135.68 18.8672C135.372 18.4349 134.94 18.2188 134.383 18.2188C133.831 18.2188 133.404 18.4349 133.102 18.8672C132.799 19.2943 132.648 19.9583 132.648 20.8594ZM142.492 14.4688V16.5469H143.938V18.2031H142.492V22.4219C142.492 22.7344 142.552 22.9583 142.672 23.0938C142.792 23.2292 143.021 23.2969 143.359 23.2969C143.609 23.2969 143.831 23.2786 144.023 23.2422V24.9531C143.581 25.0885 143.125 25.1562 142.656 25.1562C141.073 25.1562 140.266 24.3568 140.234 22.7578V18.2031H139V16.5469H140.234V14.4688H142.492ZM151.883 14.4688V16.5469H153.328V18.2031H151.883V22.4219C151.883 22.7344 151.943 22.9583 152.062 23.0938C152.182 23.2292 152.411 23.2969 152.75 23.2969C153 23.2969 153.221 23.2786 153.414 23.2422V24.9531C152.971 25.0885 152.516 25.1562 152.047 25.1562C150.464 25.1562 149.656 24.3568 149.625 22.7578V18.2031H148.391V16.5469H149.625V14.4688H151.883ZM154 20.6953C154 19.8568 154.161 19.1094 154.484 18.4531C154.807 17.7969 155.271 17.2891 155.875 16.9297C156.484 16.5703 157.19 16.3906 157.992 16.3906C159.133 16.3906 160.062 16.7396 160.781 17.4375C161.505 18.1354 161.909 19.0833 161.992 20.2812L162.008 20.8594C162.008 22.1562 161.646 23.1979 160.922 23.9844C160.198 24.7656 159.227 25.1562 158.008 25.1562C156.789 25.1562 155.815 24.7656 155.086 23.9844C154.362 23.2031 154 22.1406 154 20.7969V20.6953ZM156.258 20.8594C156.258 21.6615 156.409 22.276 156.711 22.7031C157.013 23.125 157.445 23.3359 158.008 23.3359C158.555 23.3359 158.982 23.1276 159.289 22.7109C159.596 22.2891 159.75 21.6172 159.75 20.6953C159.75 19.9089 159.596 19.2995 159.289 18.8672C158.982 18.4349 158.549 18.2188 157.992 18.2188C157.44 18.2188 157.013 18.4349 156.711 18.8672C156.409 19.2943 156.258 19.9583 156.258 20.8594ZM167.531 25V13.625H171.031C172.031 13.625 172.924 13.8516 173.711 14.3047C174.503 14.7526 175.12 15.3932 175.562 16.2266C176.005 17.0547 176.227 17.9974 176.227 19.0547V19.5781C176.227 20.6354 176.008 21.5755 175.57 22.3984C175.138 23.2214 174.526 23.8594 173.734 24.3125C172.943 24.7656 172.049 24.9948 171.055 25H167.531ZM169.875 15.5234V23.1172H171.008C171.924 23.1172 172.625 22.8177 173.109 22.2188C173.594 21.6198 173.841 20.763 173.852 19.6484V19.0469C173.852 17.8906 173.612 17.0156 173.133 16.4219C172.654 15.8229 171.953 15.5234 171.031 15.5234H169.875ZM180.172 25H177.906V16.5469H180.172V25ZM177.773 14.3594C177.773 14.0208 177.885 13.7422 178.109 13.5234C178.339 13.3047 178.648 13.1953 179.039 13.1953C179.424 13.1953 179.732 13.3047 179.961 13.5234C180.19 13.7422 180.305 14.0208 180.305 14.3594C180.305 14.7031 180.188 14.9844 179.953 15.2031C179.724 15.4219 179.419 15.5312 179.039 15.5312C178.659 15.5312 178.352 15.4219 178.117 15.2031C177.888 14.9844 177.773 14.7031 177.773 14.3594ZM186.617 22.6641C186.617 22.388 186.479 22.1719 186.203 22.0156C185.932 21.8542 185.495 21.7109 184.891 21.5859C182.88 21.1641 181.875 20.3099 181.875 19.0234C181.875 18.2734 182.185 17.6484 182.805 17.1484C183.43 16.6432 184.245 16.3906 185.25 16.3906C186.323 16.3906 187.18 16.6432 187.82 17.1484C188.466 17.6536 188.789 18.3099 188.789 19.1172H186.531C186.531 18.7943 186.427 18.5286 186.219 18.3203C186.01 18.1068 185.685 18 185.242 18C184.862 18 184.568 18.0859 184.359 18.2578C184.151 18.4297 184.047 18.6484 184.047 18.9141C184.047 19.1641 184.164 19.3672 184.398 19.5234C184.638 19.6745 185.039 19.8073 185.602 19.9219C186.164 20.0312 186.638 20.1562 187.023 20.2969C188.216 20.7344 188.812 21.4922 188.812 22.5703C188.812 23.3411 188.482 23.9661 187.82 24.4453C187.159 24.9193 186.305 25.1562 185.258 25.1562C184.549 25.1562 183.919 25.0312 183.367 24.7812C182.82 24.526 182.391 24.1797 182.078 23.7422C181.766 23.2995 181.609 22.8229 181.609 22.3125H183.75C183.771 22.7135 183.919 23.0208 184.195 23.2344C184.471 23.4479 184.841 23.5547 185.305 23.5547C185.737 23.5547 186.062 23.474 186.281 23.3125C186.505 23.1458 186.617 22.9297 186.617 22.6641ZM193.789 23.3359C194.206 23.3359 194.544 23.2214 194.805 22.9922C195.065 22.763 195.201 22.4583 195.211 22.0781H197.328C197.323 22.651 197.167 23.1771 196.859 23.6562C196.552 24.1302 196.13 24.5 195.594 24.7656C195.062 25.026 194.474 25.1562 193.828 25.1562C192.62 25.1562 191.667 24.7734 190.969 24.0078C190.271 23.237 189.922 22.1745 189.922 20.8203V20.6719C189.922 19.3698 190.268 18.3307 190.961 17.5547C191.654 16.7786 192.604 16.3906 193.812 16.3906C194.87 16.3906 195.716 16.6927 196.352 17.2969C196.992 17.8958 197.318 18.6953 197.328 19.6953H195.211C195.201 19.2578 195.065 18.9036 194.805 18.6328C194.544 18.3568 194.201 18.2188 193.773 18.2188C193.247 18.2188 192.849 18.4115 192.578 18.7969C192.312 19.1771 192.18 19.7969 192.18 20.6562V20.8906C192.18 21.7604 192.312 22.3854 192.578 22.7656C192.844 23.1458 193.247 23.3359 193.789 23.3359ZM198.266 20.6953C198.266 19.8568 198.427 19.1094 198.75 18.4531C199.073 17.7969 199.536 17.2891 200.141 16.9297C200.75 16.5703 201.456 16.3906 202.258 16.3906C203.398 16.3906 204.328 16.7396 205.047 17.4375C205.771 18.1354 206.174 19.0833 206.258 20.2812L206.273 20.8594C206.273 22.1562 205.911 23.1979 205.188 23.9844C204.464 24.7656 203.492 25.1562 202.273 25.1562C201.055 25.1562 200.081 24.7656 199.352 23.9844C198.628 23.2031 198.266 22.1406 198.266 20.7969V20.6953ZM200.523 20.8594C200.523 21.6615 200.674 22.276 200.977 22.7031C201.279 23.125 201.711 23.3359 202.273 23.3359C202.82 23.3359 203.247 23.1276 203.555 22.7109C203.862 22.2891 204.016 21.6172 204.016 20.6953C204.016 19.9089 203.862 19.2995 203.555 18.8672C203.247 18.4349 202.815 18.2188 202.258 18.2188C201.706 18.2188 201.279 18.4349 200.977 18.8672C200.674 19.2943 200.523 19.9583 200.523 20.8594ZM212.414 18.6641C212.107 18.6224 211.836 18.6016 211.602 18.6016C210.747 18.6016 210.188 18.8906 209.922 19.4688V25H207.664V16.5469H209.797L209.859 17.5547C210.312 16.7786 210.94 16.3906 211.742 16.3906C211.992 16.3906 212.227 16.4245 212.445 16.4922L212.414 18.6641ZM213 20.7109C213 19.3932 213.294 18.3438 213.883 17.5625C214.477 16.7812 215.286 16.3906 216.312 16.3906C217.135 16.3906 217.815 16.6979 218.352 17.3125V13H220.617V25H218.578L218.469 24.1016C217.906 24.8047 217.182 25.1562 216.297 25.1562C215.302 25.1562 214.503 24.7656 213.898 23.9844C213.299 23.1979 213 22.1068 213 20.7109ZM215.258 20.875C215.258 21.6667 215.396 22.2734 215.672 22.6953C215.948 23.1172 216.349 23.3281 216.875 23.3281C217.573 23.3281 218.065 23.0339 218.352 22.4453V19.1094C218.07 18.5208 217.583 18.2266 216.891 18.2266C215.802 18.2266 215.258 19.1094 215.258 20.875Z" fill="white"/>
</g>
<g filter="url(#filter1_d)">
<path fill-rule="evenodd" clip-rule="evenodd" d="M19 10C19.3315 10 19.6495 10.1317 19.8839 10.3661C20.1183 10.6005 20.25 10.9185 20.25 11.25V18.75H27.75C28.0815 18.75 28.3995 18.8817 28.6339 19.1161C28.8683 19.3505 29 19.6685 29 20C29 20.3315 28.8683 20.6495 28.6339 20.8839C28.3995 21.1183 28.0815 21.25 27.75 21.25H20.25V28.75C20.25 29.0815 20.1183 29.3995 19.8839 29.6339C19.6495 29.8683 19.3315 30 19 30C18.6685 30 18.3505 29.8683 18.1161 29.6339C17.8817 29.3995 17.75 29.0815 17.75 28.75V21.25H10.25C9.91848 21.25 9.60054 21.1183 9.36612 20.8839C9.1317 20.6495 9 20.3315 9 20C9 19.6685 9.1317 19.3505 9.36612 19.1161C9.60054 18.8817 9.91848 18.75 10.25 18.75H17.75V11.25C17.75 10.9185 17.8817 10.6005 18.1161 10.3661C18.3505 10.1317 18.6685 10 19 10Z" fill="white"/>
</g>
<defs>
<filter id="filter0_d" x="33.5547" y="13" width="191.062" height="23.4141" filterUnits="userSpaceOnUse" color-interpolation-filters="sRGB">
<feFlood flood-opacity="0" result="BackgroundImageFix"/>
<feColorMatrix in="SourceAlpha" type="matrix" values="0 0 0 0 0 0 0 0 0 0 0 0 0 0 0 0 0 0 127 0"/>
<feOffset dy="4"/>
<feGaussianBlur stdDeviation="2"/>
<feColorMatrix type="matrix" values="0 0 0 0 0 0 0 0 0 0 0 0 0 0 0 0 0 0 0.25 0"/>
<feBlend mode="normal" in2="BackgroundImageFix" result="effect1_dropShadow"/>
<feBlend mode="normal" in="SourceGraphic" in2="effect1_dropShadow" result="shape"/>
</filter>
<filter id="filter1_d" x="5" y="10" width="28" height="28" filterUnits="userSpaceOnUse" color-interpolation-filters="sRGB">
<feFlood flood-opacity="0" result="BackgroundImageFix"/>
<feColorMatrix in="SourceAlpha" type="matrix" values="0 0 0 0 0 0 0 0 0 0 0 0 0 0 0 0 0 0 127 0"/>
<feOffset dy="4"/>
<feGaussianBlur stdDeviation="2"/>
<feColorMatrix type="matrix" values="0 0 0 0 0 0 0 0 0 0 0 0 0 0 0 0 0 0 0.25 0"/>
<feBlend mode="normal" in2="BackgroundImageFix" result="effect1_dropShadow"/>
<feBlend mode="normal" in="SourceGraphic" in2="effect1_dropShadow" result="shape"/>
</filter>
</defs>
</svg>
