<svg width="210" height="40" viewBox="0 0 210 40" fill="none" xmlns="http://www.w3.org/2000/svg">
<rect width="210" height="40" fill="#7289DA"/>
<g filter="url(#filter0_d)">
<path d="M59.0166 14.3359H60.8623V21.814C60.8623 22.8345 60.5425 23.645 59.9028 24.2456C59.2681 24.8462 58.4282 25.1465 57.3833 25.1465C56.27 25.1465 55.4106 24.8657 54.8052 24.3042C54.1997 23.7427 53.897 22.9614 53.897 21.9604H55.7427C55.7427 22.5269 55.8818 22.9541 56.1602 23.2422C56.4434 23.5254 56.8511 23.667 57.3833 23.667C57.8813 23.667 58.2769 23.5034 58.5698 23.1763C58.8677 22.8442 59.0166 22.3877 59.0166 21.8066V14.3359ZM62.481 20.9644C62.481 20.188 62.6348 19.4897 62.9424 18.8696C63.25 18.2446 63.6821 17.7661 64.2388 17.4341C64.7954 17.0972 65.4351 16.9287 66.1577 16.9287C67.2271 16.9287 68.0938 17.2729 68.7578 17.9614C69.4268 18.6499 69.7881 19.563 69.8418 20.7007L69.8491 21.1182C69.8491 21.8994 69.6978 22.5977 69.395 23.2129C69.0972 23.8281 68.6675 24.3042 68.106 24.6411C67.5493 24.978 66.9048 25.1465 66.1724 25.1465C65.0542 25.1465 64.1582 24.7754 63.4844 24.0332C62.8154 23.2861 62.481 22.2925 62.481 21.0522V20.9644ZM64.2607 21.1182C64.2607 21.9336 64.4292 22.5732 64.7661 23.0371C65.103 23.4961 65.5718 23.7256 66.1724 23.7256C66.7729 23.7256 67.2393 23.4912 67.5713 23.0225C67.9082 22.5537 68.0767 21.8677 68.0767 20.9644C68.0767 20.1636 67.9033 19.5288 67.5566 19.0601C67.2148 18.5913 66.7485 18.3569 66.1577 18.3569C65.5767 18.3569 65.1152 18.5889 64.7734 19.0527C64.4316 19.5117 64.2607 20.2002 64.2607 21.1182ZM73.2476 25H71.4678V17.0752H73.2476V25ZM71.3579 15.0171C71.3579 14.7437 71.4434 14.5166 71.6143 14.3359C71.79 14.1553 72.0391 14.0649 72.3613 14.0649C72.6836 14.0649 72.9326 14.1553 73.1084 14.3359C73.2842 14.5166 73.3721 14.7437 73.3721 15.0171C73.3721 15.2856 73.2842 15.5103 73.1084 15.6909C72.9326 15.8667 72.6836 15.9546 72.3613 15.9546C72.0391 15.9546 71.79 15.8667 71.6143 15.6909C71.4434 15.5103 71.3579 15.2856 71.3579 15.0171ZM76.8438 17.0752L76.895 17.9907C77.481 17.2827 78.25 16.9287 79.2021 16.9287C80.8525 16.9287 81.6924 17.8735 81.7217 19.7632V25H79.9419V19.8657C79.9419 19.3628 79.832 18.9917 79.6123 18.7524C79.3975 18.5083 79.0435 18.3862 78.5503 18.3862C77.8325 18.3862 77.2979 18.7109 76.9463 19.3604V25H75.1665V17.0752H76.8438ZM93.0229 22.2534C93.0229 21.7847 92.8569 21.4233 92.5249 21.1694C92.1978 20.9155 91.6045 20.6592 90.7451 20.4004C89.8857 20.1416 89.2021 19.8535 88.6943 19.5361C87.7227 18.9258 87.2368 18.1299 87.2368 17.1484C87.2368 16.2891 87.5859 15.5811 88.2842 15.0244C88.9873 14.4678 89.8979 14.1895 91.0161 14.1895C91.7583 14.1895 92.4199 14.3262 93.001 14.5996C93.582 14.873 94.0386 15.2637 94.3706 15.7715C94.7026 16.2744 94.8687 16.8335 94.8687 17.4487H93.0229C93.0229 16.8921 92.8472 16.4575 92.4956 16.145C92.1489 15.8276 91.6509 15.6689 91.0015 15.6689C90.396 15.6689 89.9248 15.7983 89.5879 16.0571C89.2559 16.3159 89.0898 16.6772 89.0898 17.1411C89.0898 17.5317 89.2705 17.8589 89.6318 18.1226C89.9932 18.3813 90.5889 18.6353 91.4189 18.8843C92.249 19.1284 92.9155 19.4092 93.4185 19.7266C93.9214 20.0391 94.29 20.4004 94.5244 20.8105C94.7588 21.2158 94.876 21.6919 94.876 22.2388C94.876 23.1274 94.5342 23.8354 93.8506 24.3628C93.1719 24.8853 92.249 25.1465 91.082 25.1465C90.3105 25.1465 89.6001 25.0049 88.9507 24.7217C88.3062 24.4336 87.8032 24.0381 87.4419 23.5352C87.0854 23.0322 86.9072 22.4463 86.9072 21.7773H88.7603C88.7603 22.3828 88.9604 22.8516 89.3608 23.1836C89.7612 23.5156 90.335 23.6816 91.082 23.6816C91.7266 23.6816 92.21 23.5522 92.5322 23.2935C92.8594 23.0298 93.0229 22.6831 93.0229 22.2534ZM101.131 24.2236C100.608 24.8389 99.8662 25.1465 98.9043 25.1465C98.0449 25.1465 97.3931 24.895 96.9487 24.3921C96.5093 23.8892 96.2896 23.1616 96.2896 22.2095V17.0752H98.0693V22.1875C98.0693 23.1934 98.4868 23.6963 99.3218 23.6963C100.186 23.6963 100.77 23.3862 101.072 22.7661V17.0752H102.852V25H101.175L101.131 24.2236ZM111.604 21.1182C111.604 22.3438 111.326 23.3228 110.77 24.0552C110.213 24.7827 109.466 25.1465 108.528 25.1465C107.659 25.1465 106.963 24.8608 106.441 24.2896V28.0469H104.661V17.0752H106.302L106.375 17.8809C106.897 17.2461 107.608 16.9287 108.506 16.9287C109.473 16.9287 110.23 17.29 110.777 18.0127C111.329 18.7305 111.604 19.729 111.604 21.0083V21.1182ZM109.832 20.9644C109.832 20.1733 109.673 19.5459 109.356 19.082C109.043 18.6182 108.594 18.3862 108.008 18.3862C107.281 18.3862 106.758 18.6865 106.441 19.2871V22.8027C106.763 23.418 107.291 23.7256 108.023 23.7256C108.589 23.7256 109.031 23.4985 109.349 23.0444C109.671 22.5854 109.832 21.8921 109.832 20.9644ZM120.057 21.1182C120.057 22.3438 119.778 23.3228 119.222 24.0552C118.665 24.7827 117.918 25.1465 116.98 25.1465C116.111 25.1465 115.416 24.8608 114.893 24.2896V28.0469H113.113V17.0752H114.754L114.827 17.8809C115.35 17.2461 116.06 16.9287 116.958 16.9287C117.925 16.9287 118.682 17.29 119.229 18.0127C119.781 18.7305 120.057 19.729 120.057 21.0083V21.1182ZM118.284 20.9644C118.284 20.1733 118.125 19.5459 117.808 19.082C117.496 18.6182 117.046 18.3862 116.46 18.3862C115.733 18.3862 115.21 18.6865 114.893 19.2871V22.8027C115.215 23.418 115.743 23.7256 116.475 23.7256C117.042 23.7256 117.483 23.4985 117.801 23.0444C118.123 22.5854 118.284 21.8921 118.284 20.9644ZM121.236 20.9644C121.236 20.188 121.39 19.4897 121.697 18.8696C122.005 18.2446 122.437 17.7661 122.994 17.4341C123.55 17.0972 124.19 16.9287 124.913 16.9287C125.982 16.9287 126.849 17.2729 127.513 17.9614C128.182 18.6499 128.543 19.563 128.597 20.7007L128.604 21.1182C128.604 21.8994 128.453 22.5977 128.15 23.2129C127.852 23.8281 127.422 24.3042 126.861 24.6411C126.304 24.978 125.66 25.1465 124.927 25.1465C123.809 25.1465 122.913 24.7754 122.239 24.0332C121.57 23.2861 121.236 22.2925 121.236 21.0522V20.9644ZM123.016 21.1182C123.016 21.9336 123.184 22.5732 123.521 23.0371C123.858 23.4961 124.327 23.7256 124.927 23.7256C125.528 23.7256 125.994 23.4912 126.326 23.0225C126.663 22.5537 126.832 21.8677 126.832 20.9644C126.832 20.1636 126.658 19.5288 126.312 19.0601C125.97 18.5913 125.503 18.3569 124.913 18.3569C124.332 18.3569 123.87 18.5889 123.528 19.0527C123.187 19.5117 123.016 20.2002 123.016 21.1182ZM134.258 18.7012C134.024 18.6621 133.782 18.6426 133.533 18.6426C132.718 18.6426 132.168 18.9551 131.885 19.5801V25H130.105V17.0752H131.805L131.849 17.9614C132.278 17.2729 132.874 16.9287 133.636 16.9287C133.89 16.9287 134.1 16.9629 134.266 17.0312L134.258 18.7012ZM137.979 15.1489V17.0752H139.378V18.3936H137.979V22.8174C137.979 23.1201 138.038 23.3398 138.155 23.4766C138.277 23.6084 138.492 23.6743 138.799 23.6743C139.004 23.6743 139.212 23.6499 139.422 23.6011V24.978C139.017 25.0903 138.626 25.1465 138.25 25.1465C136.883 25.1465 136.199 24.3921 136.199 22.8833V18.3936H134.896V17.0752H136.199V15.1489H137.979ZM148.921 22.8467C148.921 22.5293 148.79 22.2876 148.526 22.1216C148.267 21.9556 147.835 21.8091 147.229 21.6821C146.624 21.5552 146.119 21.394 145.713 21.1987C144.825 20.769 144.38 20.1465 144.38 19.3311C144.38 18.6475 144.668 18.0762 145.245 17.6172C145.821 17.1582 146.553 16.9287 147.442 16.9287C148.389 16.9287 149.153 17.1631 149.734 17.6318C150.32 18.1006 150.613 18.7085 150.613 19.4556H148.833C148.833 19.1138 148.707 18.8306 148.453 18.606C148.199 18.3765 147.862 18.2617 147.442 18.2617C147.051 18.2617 146.731 18.3521 146.482 18.5327C146.238 18.7134 146.116 18.9551 146.116 19.2578C146.116 19.5312 146.231 19.7437 146.46 19.895C146.69 20.0464 147.154 20.2002 147.852 20.3564C148.55 20.5078 149.097 20.6909 149.493 20.9058C149.893 21.1157 150.188 21.3696 150.379 21.6675C150.574 21.9653 150.672 22.3267 150.672 22.7515C150.672 23.4644 150.376 24.043 149.786 24.4873C149.195 24.9268 148.421 25.1465 147.464 25.1465C146.814 25.1465 146.236 25.0293 145.728 24.7949C145.22 24.5605 144.825 24.2383 144.542 23.8281C144.258 23.418 144.117 22.9761 144.117 22.5024H145.845C145.87 22.9224 146.028 23.2471 146.321 23.4766C146.614 23.7012 147.002 23.8135 147.486 23.8135C147.955 23.8135 148.311 23.7256 148.555 23.5498C148.799 23.3691 148.921 23.1348 148.921 22.8467ZM155.718 25.1465C154.59 25.1465 153.675 24.7925 152.972 24.0845C152.273 23.3716 151.924 22.4243 151.924 21.2427V21.0229C151.924 20.2319 152.076 19.5264 152.378 18.9062C152.686 18.2812 153.116 17.7954 153.667 17.4487C154.219 17.1021 154.834 16.9287 155.513 16.9287C156.592 16.9287 157.425 17.2729 158.011 17.9614C158.602 18.6499 158.897 19.624 158.897 20.8838V21.6016H153.719C153.772 22.2559 153.99 22.7734 154.371 23.1543C154.756 23.5352 155.24 23.7256 155.821 23.7256C156.636 23.7256 157.3 23.396 157.813 22.7368L158.772 23.6523C158.455 24.126 158.03 24.4946 157.498 24.7583C156.971 25.0171 156.377 25.1465 155.718 25.1465ZM155.506 18.3569C155.018 18.3569 154.622 18.5278 154.319 18.8696C154.021 19.2114 153.831 19.6875 153.748 20.2979H157.139V20.166C157.1 19.5703 156.941 19.1211 156.663 18.8184C156.385 18.5107 155.999 18.3569 155.506 18.3569ZM164.434 18.7012C164.2 18.6621 163.958 18.6426 163.709 18.6426C162.894 18.6426 162.344 18.9551 162.061 19.5801V25H160.281V17.0752H161.98L162.024 17.9614C162.454 17.2729 163.05 16.9287 163.812 16.9287C164.065 16.9287 164.275 16.9629 164.441 17.0312L164.434 18.7012ZM168.484 22.7441L170.162 17.0752H172L169.253 25H167.708L164.939 17.0752H166.785L168.484 22.7441ZM176.504 25.1465C175.376 25.1465 174.461 24.7925 173.758 24.0845C173.06 23.3716 172.71 22.4243 172.71 21.2427V21.0229C172.71 20.2319 172.862 19.5264 173.165 18.9062C173.472 18.2812 173.902 17.7954 174.454 17.4487C175.005 17.1021 175.621 16.9287 176.299 16.9287C177.378 16.9287 178.211 17.2729 178.797 17.9614C179.388 18.6499 179.683 19.624 179.683 20.8838V21.6016H174.505C174.559 22.2559 174.776 22.7734 175.157 23.1543C175.542 23.5352 176.026 23.7256 176.607 23.7256C177.422 23.7256 178.086 23.396 178.599 22.7368L179.559 23.6523C179.241 24.126 178.816 24.4946 178.284 24.7583C177.757 25.0171 177.164 25.1465 176.504 25.1465ZM176.292 18.3569C175.804 18.3569 175.408 18.5278 175.105 18.8696C174.808 19.2114 174.617 19.6875 174.534 20.2979H177.925V20.166C177.886 19.5703 177.728 19.1211 177.449 18.8184C177.171 18.5107 176.785 18.3569 176.292 18.3569ZM185.22 18.7012C184.986 18.6621 184.744 18.6426 184.495 18.6426C183.68 18.6426 183.13 18.9551 182.847 19.5801V25H181.067V17.0752H182.767L182.811 17.9614C183.24 17.2729 183.836 16.9287 184.598 16.9287C184.852 16.9287 185.062 16.9629 185.228 17.0312L185.22 18.7012Z" fill="white"/>
</g>
<g filter="url(#filter1_d)">
<path fill-rule="evenodd" clip-rule="evenodd" d="M13 11.75C13 11.0207 13.2766 10.3212 13.7688 9.80546C14.2611 9.28973 14.9288 9 15.625 9H31.375C32.0712 9 32.7389 9.28973 33.2312 9.80546C33.7234 10.3212 34 11.0207 34 11.75V28.25C34 28.9793 33.7234 29.6788 33.2312 30.1945C32.7389 30.7103 32.0712 31 31.375 31H15.625C14.9288 31 14.2611 30.7103 13.7688 30.1945C13.2766 29.6788 13 28.9793 13 28.25V11.75ZM24.7206 18.0585L21.715 18.4531L21.6074 18.9756L22.198 19.0897C22.5839 19.186 22.66 19.3318 22.576 19.7346L21.6074 24.5031C21.3528 25.7365 21.7452 26.3167 22.6679 26.3167C23.3832 26.3167 24.214 25.9703 24.5907 25.4945L24.7062 24.9225C24.4437 25.1645 24.0604 25.2608 23.8058 25.2608C23.4449 25.2608 23.3136 24.9954 23.4068 24.5279L24.7206 18.0585ZM23.5 16.5625C23.8481 16.5625 24.1819 16.4176 24.4281 16.1598C24.6742 15.9019 24.8125 15.5522 24.8125 15.1875C24.8125 14.8228 24.6742 14.4731 24.4281 14.2152C24.1819 13.9574 23.8481 13.8125 23.5 13.8125C23.1519 13.8125 22.8181 13.9574 22.5719 14.2152C22.3258 14.4731 22.1875 14.8228 22.1875 15.1875C22.1875 15.5522 22.3258 15.9019 22.5719 16.1598C22.8181 16.4176 23.1519 16.5625 23.5 16.5625Z" fill="white"/>
</g>
<defs>
<filter id="filter0_d" x="49.897" y="14.0649" width="139.331" height="21.9819" filterUnits="userSpaceOnUse" color-interpolation-filters="sRGB">
<feFlood flood-opacity="0" result="BackgroundImageFix"/>
<feColorMatrix in="SourceAlpha" type="matrix" values="0 0 0 0 0 0 0 0 0 0 0 0 0 0 0 0 0 0 127 0"/>
<feOffset dy="4"/>
<feGaussianBlur stdDeviation="2"/>
<feColorMatrix type="matrix" values="0 0 0 0 0 0 0 0 0 0 0 0 0 0 0 0 0 0 0.25 0"/>
<feBlend mode="normal" in2="BackgroundImageFix" result="effect1_dropShadow"/>
<feBlend mode="normal" in="SourceGraphic" in2="effect1_dropShadow" result="shape"/>
</filter>
<filter id="filter1_d" x="9" y="9" width="29" height="30" filterUnits="userSpaceOnUse" color-interpolation-filters="sRGB">
<feFlood flood-opacity="0" result="BackgroundImageFix"/>
<feColorMatrix in="SourceAlpha" type="matrix" values="0 0 0 0 0 0 0 0 0 0 0 0 0 0 0 0 0 0 127 0"/>
<feOffset dy="4"/>
<feGaussianBlur stdDeviation="2"/>
<feColorMatrix type="matrix" values="0 0 0 0 0 0 0 0 0 0 0 0 0 0 0 0 0 0 0.25 0"/>
<feBlend mode="normal" in2="BackgroundImageFix" result="effect1_dropShadow"/>
<feBlend mode="normal" in="SourceGraphic" in2="effect1_dropShadow" result="shape"/>
</filter>
</defs>
</svg>
