<svg width="210" height="40" viewBox="0 0 210 40" fill="none" xmlns="http://www.w3.org/2000/svg">
<rect width="210" height="40" fill="#7289DA"/>
<path d="M49.9893 13.9141H52.4795V22.2812C52.4795 23.0505 52.3079 23.7311 51.9648 24.3232C51.6273 24.9098 51.1486 25.3636 50.5288 25.6846C49.909 26.0055 49.209 26.166 48.4287 26.166C47.1504 26.166 46.1543 25.8423 45.4404 25.1948C44.7266 24.5418 44.3696 23.6204 44.3696 22.4307H46.8765C46.8765 23.0228 47.001 23.46 47.25 23.7422C47.499 24.0244 47.8919 24.1655 48.4287 24.1655C48.9046 24.1655 49.2837 24.0023 49.5659 23.6758C49.8481 23.3493 49.9893 22.8844 49.9893 22.2812V13.9141ZM54.0815 21.4263C54.0815 20.5353 54.2531 19.7412 54.5962 19.0439C54.9393 18.3467 55.4318 17.8071 56.0737 17.4253C56.7212 17.0435 57.471 16.8525 58.3232 16.8525C59.5352 16.8525 60.5229 17.2233 61.2866 17.9648C62.0558 18.7064 62.4847 19.7135 62.5732 20.9863L62.5898 21.6006C62.5898 22.9785 62.2052 24.0853 61.436 24.9209C60.6668 25.751 59.6348 26.166 58.3398 26.166C57.0449 26.166 56.0101 25.751 55.2354 24.9209C54.4661 24.0908 54.0815 22.9619 54.0815 21.5342V21.4263ZM56.4805 21.6006C56.4805 22.4528 56.641 23.1058 56.9619 23.5596C57.2829 24.0078 57.7422 24.2319 58.3398 24.2319C58.9209 24.2319 59.3747 24.0106 59.7012 23.5679C60.0277 23.1196 60.1909 22.4058 60.1909 21.4263C60.1909 20.5907 60.0277 19.9432 59.7012 19.4839C59.3747 19.0246 58.9154 18.7949 58.3232 18.7949C57.7367 18.7949 57.2829 19.0246 56.9619 19.4839C56.641 19.9377 56.4805 20.6432 56.4805 21.6006ZM66.5991 26H64.1919V17.0186H66.5991V26ZM64.0508 14.6943C64.0508 14.3346 64.1698 14.0386 64.4077 13.8062C64.6512 13.5737 64.9805 13.4575 65.3955 13.4575C65.805 13.4575 66.1315 13.5737 66.375 13.8062C66.6185 14.0386 66.7402 14.3346 66.7402 14.6943C66.7402 15.0596 66.6157 15.3584 66.3667 15.5908C66.1232 15.8232 65.7995 15.9395 65.3955 15.9395C64.9915 15.9395 64.665 15.8232 64.416 15.5908C64.1725 15.3584 64.0508 15.0596 64.0508 14.6943ZM70.791 17.0186L70.8657 18.0562C71.5076 17.2537 72.3682 16.8525 73.4473 16.8525C74.3991 16.8525 75.1074 17.132 75.5723 17.6909C76.0371 18.2498 76.2751 19.0854 76.2861 20.1978V26H73.8872V20.2559C73.8872 19.7467 73.7765 19.3787 73.5552 19.1519C73.3338 18.9194 72.9658 18.8032 72.4512 18.8032C71.776 18.8032 71.2697 19.091 70.9321 19.6665V26H68.5332V17.0186H70.791ZM88.7705 22.8291C88.7705 22.3587 88.6045 21.999 88.2725 21.75C87.9404 21.4954 87.3428 21.2298 86.4795 20.9531C85.6162 20.6709 84.9328 20.3942 84.4292 20.123C83.0568 19.3815 82.3706 18.3826 82.3706 17.1265C82.3706 16.4735 82.5532 15.8924 82.9185 15.3833C83.2892 14.8687 83.8177 14.4674 84.5039 14.1797C85.1956 13.8919 85.9704 13.748 86.8281 13.748C87.6914 13.748 88.4606 13.9058 89.1357 14.2212C89.8109 14.5311 90.3338 14.971 90.7046 15.541C91.0809 16.111 91.269 16.7585 91.269 17.4834H88.7788C88.7788 16.93 88.6045 16.5011 88.2559 16.1968C87.9072 15.8869 87.4175 15.7319 86.7866 15.7319C86.1779 15.7319 85.7048 15.862 85.3672 16.1221C85.0296 16.3766 84.8608 16.7142 84.8608 17.1348C84.8608 17.5277 85.0573 17.8569 85.4502 18.1226C85.8486 18.3882 86.4325 18.6372 87.2017 18.8696C88.6183 19.2957 89.6504 19.8242 90.2979 20.4551C90.9453 21.0859 91.269 21.8717 91.269 22.8125C91.269 23.8584 90.8734 24.6802 90.082 25.2778C89.2907 25.87 88.2254 26.166 86.8862 26.166C85.9565 26.166 85.1099 25.9972 84.3462 25.6597C83.5825 25.3166 82.9987 24.849 82.5947 24.2568C82.1963 23.6647 81.9971 22.9785 81.9971 22.1982H84.4956C84.4956 23.5319 85.2925 24.1987 86.8862 24.1987C87.4784 24.1987 87.9404 24.0798 88.2725 23.8418C88.6045 23.5983 88.7705 23.2607 88.7705 22.8291ZM98.1836 25.0869C97.5915 25.8063 96.7725 26.166 95.7266 26.166C94.7637 26.166 94.0277 25.8893 93.5186 25.3359C93.015 24.7826 92.7576 23.9718 92.7466 22.9038V17.0186H95.1455V22.8208C95.1455 23.756 95.5716 24.2236 96.4238 24.2236C97.2373 24.2236 97.7962 23.9414 98.1006 23.377V17.0186H100.508V26H98.25L98.1836 25.0869ZM110.402 21.5923C110.402 22.9757 110.087 24.0853 109.456 24.9209C108.831 25.751 107.984 26.166 106.916 26.166C106.008 26.166 105.275 25.8506 104.716 25.2197V29.4531H102.317V17.0186H104.542L104.625 17.8984C105.206 17.2012 105.964 16.8525 106.899 16.8525C108.006 16.8525 108.867 17.262 109.481 18.0811C110.095 18.9001 110.402 20.029 110.402 21.4678V21.5923ZM108.003 21.418C108.003 20.5824 107.854 19.9377 107.555 19.4839C107.262 19.0301 106.833 18.8032 106.269 18.8032C105.516 18.8032 104.999 19.091 104.716 19.6665V23.3438C105.01 23.9359 105.533 24.2319 106.285 24.2319C107.431 24.2319 108.003 23.2939 108.003 21.418ZM119.981 21.5923C119.981 22.9757 119.666 24.0853 119.035 24.9209C118.41 25.751 117.563 26.166 116.495 26.166C115.588 26.166 114.854 25.8506 114.295 25.2197V29.4531H111.896V17.0186H114.121L114.204 17.8984C114.785 17.2012 115.543 16.8525 116.479 16.8525C117.585 16.8525 118.446 17.262 119.06 18.0811C119.674 18.9001 119.981 20.029 119.981 21.4678V21.5923ZM117.583 21.418C117.583 20.5824 117.433 19.9377 117.134 19.4839C116.841 19.0301 116.412 18.8032 115.848 18.8032C115.095 18.8032 114.578 19.091 114.295 19.6665V23.3438C114.589 23.9359 115.112 24.2319 115.864 24.2319C117.01 24.2319 117.583 23.2939 117.583 21.418ZM121.102 21.4263C121.102 20.5353 121.274 19.7412 121.617 19.0439C121.96 18.3467 122.452 17.8071 123.094 17.4253C123.742 17.0435 124.492 16.8525 125.344 16.8525C126.556 16.8525 127.543 17.2233 128.307 17.9648C129.076 18.7064 129.505 19.7135 129.594 20.9863L129.61 21.6006C129.61 22.9785 129.226 24.0853 128.457 24.9209C127.687 25.751 126.655 26.166 125.36 26.166C124.065 26.166 123.031 25.751 122.256 24.9209C121.487 24.0908 121.102 22.9619 121.102 21.5342V21.4263ZM123.501 21.6006C123.501 22.4528 123.661 23.1058 123.982 23.5596C124.303 24.0078 124.763 24.2319 125.36 24.2319C125.941 24.2319 126.395 24.0106 126.722 23.5679C127.048 23.1196 127.211 22.4058 127.211 21.4263C127.211 20.5907 127.048 19.9432 126.722 19.4839C126.395 19.0246 125.936 18.7949 125.344 18.7949C124.757 18.7949 124.303 19.0246 123.982 19.4839C123.661 19.9377 123.501 20.6432 123.501 21.6006ZM136.135 19.2681C135.808 19.2238 135.521 19.2017 135.271 19.2017C134.364 19.2017 133.769 19.5088 133.487 20.123V26H131.088V17.0186H133.354L133.42 18.0894C133.902 17.2648 134.569 16.8525 135.421 16.8525C135.687 16.8525 135.936 16.8885 136.168 16.9604L136.135 19.2681ZM140.584 14.8105V17.0186H142.12V18.7783H140.584V23.2607C140.584 23.5928 140.648 23.8307 140.775 23.9746C140.902 24.1185 141.146 24.1904 141.505 24.1904C141.771 24.1904 142.006 24.1711 142.211 24.1323V25.9502C141.741 26.0941 141.256 26.166 140.758 26.166C139.076 26.166 138.218 25.3166 138.185 23.6177V18.7783H136.874V17.0186H138.185V14.8105H140.584ZM152.554 23.5181C152.554 23.2248 152.407 22.9951 152.114 22.8291C151.826 22.6576 151.361 22.5054 150.719 22.3726C148.583 21.9243 147.515 21.0168 147.515 19.6499C147.515 18.853 147.844 18.189 148.503 17.6577C149.167 17.1209 150.033 16.8525 151.101 16.8525C152.241 16.8525 153.151 17.1209 153.832 17.6577C154.518 18.1945 154.861 18.8918 154.861 19.7495H152.462C152.462 19.4064 152.352 19.1242 152.13 18.9028C151.909 18.6759 151.563 18.5625 151.093 18.5625C150.689 18.5625 150.376 18.6538 150.155 18.8364C149.933 19.019 149.823 19.2515 149.823 19.5337C149.823 19.7993 149.947 20.0151 150.196 20.1812C150.451 20.3416 150.877 20.4827 151.475 20.6045C152.072 20.7207 152.576 20.8535 152.985 21.0029C154.253 21.4678 154.886 22.2729 154.886 23.4185C154.886 24.2375 154.535 24.9015 153.832 25.4106C153.129 25.9142 152.222 26.166 151.109 26.166C150.357 26.166 149.687 26.0332 149.101 25.7676C148.52 25.4964 148.063 25.1284 147.731 24.6636C147.399 24.1932 147.233 23.6868 147.233 23.1445H149.507C149.529 23.5706 149.687 23.8971 149.98 24.124C150.274 24.3509 150.667 24.4644 151.159 24.4644C151.618 24.4644 151.964 24.3786 152.197 24.207C152.435 24.0299 152.554 23.8003 152.554 23.5181ZM160.572 26.166C159.255 26.166 158.182 25.762 157.352 24.9541C156.527 24.1462 156.115 23.0698 156.115 21.7251V21.4927C156.115 20.5907 156.289 19.7855 156.638 19.0771C156.986 18.3633 157.479 17.8154 158.115 17.4336C158.757 17.0462 159.488 16.8525 160.307 16.8525C161.535 16.8525 162.501 17.2399 163.204 18.0146C163.912 18.7894 164.266 19.8879 164.266 21.3101V22.2896H158.547C158.624 22.8761 158.857 23.3465 159.244 23.7007C159.637 24.0549 160.132 24.2319 160.73 24.2319C161.654 24.2319 162.376 23.8971 162.896 23.2275L164.075 24.5474C163.715 25.0565 163.229 25.4549 162.614 25.7427C162 26.0249 161.319 26.166 160.572 26.166ZM160.298 18.7949C159.822 18.7949 159.435 18.9554 159.136 19.2764C158.843 19.5973 158.655 20.0566 158.572 20.6543H161.909V20.4634C161.898 19.9321 161.754 19.5226 161.477 19.2349C161.2 18.9416 160.807 18.7949 160.298 18.7949ZM170.683 19.2681C170.356 19.2238 170.068 19.2017 169.819 19.2017C168.912 19.2017 168.317 19.5088 168.035 20.123V26H165.636V17.0186H167.902L167.968 18.0894C168.45 17.2648 169.117 16.8525 169.969 16.8525C170.234 16.8525 170.483 16.8885 170.716 16.9604L170.683 19.2681ZM175.356 23.0698L177.024 17.0186H179.531L176.501 26H174.21L171.181 17.0186H173.688L175.356 23.0698ZM184.611 26.166C183.294 26.166 182.221 25.762 181.391 24.9541C180.566 24.1462 180.154 23.0698 180.154 21.7251V21.4927C180.154 20.5907 180.328 19.7855 180.677 19.0771C181.025 18.3633 181.518 17.8154 182.154 17.4336C182.796 17.0462 183.527 16.8525 184.346 16.8525C185.574 16.8525 186.54 17.2399 187.243 18.0146C187.951 18.7894 188.305 19.8879 188.305 21.3101V22.2896H182.586C182.663 22.8761 182.896 23.3465 183.283 23.7007C183.676 24.0549 184.171 24.2319 184.769 24.2319C185.693 24.2319 186.415 23.8971 186.936 23.2275L188.114 24.5474C187.755 25.0565 187.268 25.4549 186.653 25.7427C186.039 26.0249 185.358 26.166 184.611 26.166ZM184.337 18.7949C183.861 18.7949 183.474 18.9554 183.175 19.2764C182.882 19.5973 182.694 20.0566 182.611 20.6543H185.948V20.4634C185.937 19.9321 185.793 19.5226 185.516 19.2349C185.239 18.9416 184.847 18.7949 184.337 18.7949ZM194.722 19.2681C194.395 19.2238 194.107 19.2017 193.858 19.2017C192.951 19.2017 192.356 19.5088 192.074 20.123V26H189.675V17.0186H191.941L192.007 18.0894C192.489 17.2648 193.156 16.8525 194.008 16.8525C194.273 16.8525 194.522 16.8885 194.755 16.9604L194.722 19.2681Z" fill="white"/>
<g filter="url(#filter0_d)">
<path fill-rule="evenodd" clip-rule="evenodd" d="M13 11.75C13 11.0207 13.2766 10.3212 13.7688 9.80546C14.2611 9.28973 14.9288 9 15.625 9H31.375C32.0712 9 32.7389 9.28973 33.2312 9.80546C33.7234 10.3212 34 11.0207 34 11.75V28.25C34 28.9793 33.7234 29.6788 33.2312 30.1945C32.7389 30.7103 32.0712 31 31.375 31H15.625C14.9288 31 14.2611 30.7103 13.7688 30.1945C13.2766 29.6788 13 28.9793 13 28.25V11.75ZM24.7206 18.0585L21.715 18.4531L21.6074 18.9756L22.198 19.0897C22.5839 19.186 22.66 19.3317 22.576 19.7346L21.6074 24.5031C21.3527 25.7365 21.7452 26.3167 22.6679 26.3167C23.3832 26.3167 24.214 25.9703 24.5907 25.4945L24.7062 24.9225C24.4437 25.1645 24.0604 25.2607 23.8058 25.2607C23.4449 25.2607 23.3136 24.9954 23.4068 24.5279L24.7206 18.0585ZM23.5 16.5625C23.8481 16.5625 24.1819 16.4176 24.4281 16.1598C24.6742 15.9019 24.8125 15.5522 24.8125 15.1875C24.8125 14.8228 24.6742 14.4731 24.4281 14.2152C24.1819 13.9574 23.8481 13.8125 23.5 13.8125C23.1519 13.8125 22.8181 13.9574 22.5719 14.2152C22.3258 14.4731 22.1875 14.8228 22.1875 15.1875C22.1875 15.5522 22.3258 15.9019 22.5719 16.1598C22.8181 16.4176 23.1519 16.5625 23.5 16.5625Z" fill="white"/>
</g>
<defs>
<filter id="filter0_d" x="9" y="9" width="29" height="30" filterUnits="userSpaceOnUse" color-interpolation-filters="sRGB">
<feFlood flood-opacity="0" result="BackgroundImageFix"/>
<feColorMatrix in="SourceAlpha" type="matrix" values="0 0 0 0 0 0 0 0 0 0 0 0 0 0 0 0 0 0 127 0"/>
<feOffset dy="4"/>
<feGaussianBlur stdDeviation="2"/>
<feColorMatrix type="matrix" values="0 0 0 0 0 0 0 0 0 0 0 0 0 0 0 0 0 0 0.25 0"/>
<feBlend mode="normal" in2="BackgroundImageFix" result="effect1_dropShadow"/>
<feBlend mode="normal" in="SourceGraphic" in2="effect1_dropShadow" result="shape"/>
</filter>
</defs>
</svg>
