<svg width="210" height="40" viewBox="0 0 210 40" fill="none" xmlns="http://www.w3.org/2000/svg">
<rect width="210" height="40" fill="#7289DA"/>
<g filter="url(#filter0_d)">
<path d="M58.167 14.3359H60.3643V21.7188C60.3643 22.3975 60.2129 22.998 59.9102 23.5205C59.6123 24.0381 59.1899 24.4385 58.6431 24.7217C58.0962 25.0049 57.4785 25.1465 56.79 25.1465C55.6621 25.1465 54.7832 24.8608 54.1533 24.2896C53.5234 23.7134 53.2085 22.9004 53.2085 21.8506H55.4204C55.4204 22.373 55.5303 22.7588 55.75 23.0078C55.9697 23.2568 56.3164 23.3813 56.79 23.3813C57.21 23.3813 57.5444 23.2373 57.7935 22.9492C58.0425 22.6611 58.167 22.251 58.167 21.7188V14.3359ZM61.7778 20.9644C61.7778 20.1782 61.9292 19.4775 62.2319 18.8623C62.5347 18.2471 62.9692 17.771 63.5356 17.4341C64.1069 17.0972 64.7686 16.9287 65.5205 16.9287C66.5898 16.9287 67.4614 17.2559 68.1353 17.9102C68.814 18.5645 69.1924 19.4531 69.2705 20.5762L69.2852 21.1182C69.2852 22.334 68.9458 23.3105 68.2671 24.0479C67.5884 24.7803 66.6777 25.1465 65.5352 25.1465C64.3926 25.1465 63.4795 24.7803 62.7959 24.0479C62.1172 23.3154 61.7778 22.3193 61.7778 21.0596V20.9644ZM63.8945 21.1182C63.8945 21.8701 64.0361 22.4463 64.3193 22.8467C64.6025 23.2422 65.0078 23.4399 65.5352 23.4399C66.0479 23.4399 66.4482 23.2446 66.7363 22.854C67.0244 22.4585 67.1685 21.8286 67.1685 20.9644C67.1685 20.2271 67.0244 19.6558 66.7363 19.2505C66.4482 18.8452 66.043 18.6426 65.5205 18.6426C65.0029 18.6426 64.6025 18.8452 64.3193 19.2505C64.0361 19.6509 63.8945 20.2734 63.8945 21.1182ZM72.8228 25H70.6987V17.0752H72.8228V25ZM70.5742 15.0244C70.5742 14.707 70.6792 14.4458 70.8892 14.2407C71.104 14.0356 71.3945 13.9331 71.7607 13.9331C72.1221 13.9331 72.4102 14.0356 72.625 14.2407C72.8398 14.4458 72.9473 14.707 72.9473 15.0244C72.9473 15.3467 72.8374 15.6104 72.6177 15.8154C72.4028 16.0205 72.1172 16.123 71.7607 16.123C71.4043 16.123 71.1162 16.0205 70.8965 15.8154C70.6816 15.6104 70.5742 15.3467 70.5742 15.0244ZM76.5215 17.0752L76.5874 17.9907C77.1538 17.2827 77.9131 16.9287 78.8652 16.9287C79.7051 16.9287 80.3301 17.1753 80.7402 17.6685C81.1504 18.1616 81.3604 18.8989 81.3701 19.8804V25H79.2534V19.9316C79.2534 19.4824 79.1558 19.1577 78.9604 18.9575C78.7651 18.7524 78.4404 18.6499 77.9863 18.6499C77.3906 18.6499 76.9438 18.9038 76.646 19.4116V25H74.5293V17.0752H76.5215ZM92.3857 22.2021C92.3857 21.7871 92.2393 21.4697 91.9463 21.25C91.6533 21.0254 91.126 20.791 90.3643 20.5469C89.6025 20.2979 88.9995 20.0537 88.5552 19.8145C87.3442 19.1602 86.7388 18.2788 86.7388 17.1704C86.7388 16.5942 86.8999 16.0815 87.2222 15.6323C87.5493 15.1782 88.0156 14.8242 88.6211 14.5703C89.2314 14.3164 89.915 14.1895 90.6719 14.1895C91.4336 14.1895 92.1123 14.3286 92.708 14.6069C93.3037 14.8804 93.7651 15.2686 94.0923 15.7715C94.4243 16.2744 94.5903 16.8457 94.5903 17.4854H92.3931C92.3931 16.9971 92.2393 16.6187 91.9316 16.3501C91.624 16.0767 91.1919 15.9399 90.6353 15.9399C90.0981 15.9399 89.6807 16.0547 89.3828 16.2842C89.085 16.5088 88.936 16.8066 88.936 17.1777C88.936 17.5244 89.1094 17.8149 89.4561 18.0493C89.8076 18.2837 90.3228 18.5034 91.0015 18.7085C92.2515 19.0845 93.1621 19.5508 93.7334 20.1074C94.3047 20.6641 94.5903 21.3574 94.5903 22.1875C94.5903 23.1104 94.2412 23.8354 93.543 24.3628C92.8447 24.8853 91.9048 25.1465 90.7231 25.1465C89.9028 25.1465 89.1558 24.9976 88.4819 24.6997C87.8081 24.397 87.293 23.9844 86.9365 23.4619C86.585 22.9395 86.4092 22.334 86.4092 21.6455H88.6138C88.6138 22.8223 89.3169 23.4106 90.7231 23.4106C91.2456 23.4106 91.6533 23.3057 91.9463 23.0957C92.2393 22.8809 92.3857 22.583 92.3857 22.2021ZM100.691 24.1943C100.169 24.8291 99.4463 25.1465 98.5234 25.1465C97.6738 25.1465 97.0244 24.9023 96.5752 24.4141C96.1309 23.9258 95.9038 23.2104 95.894 22.2681V17.0752H98.0107V22.1948C98.0107 23.02 98.3867 23.4326 99.1387 23.4326C99.8564 23.4326 100.35 23.1836 100.618 22.6855V17.0752H102.742V25H100.75L100.691 24.1943ZM111.473 21.1108C111.473 22.3315 111.194 23.3105 110.638 24.0479C110.086 24.7803 109.339 25.1465 108.396 25.1465C107.596 25.1465 106.949 24.8682 106.456 24.3115V28.0469H104.339V17.0752H106.302L106.375 17.8516C106.888 17.2363 107.557 16.9287 108.382 16.9287C109.358 16.9287 110.118 17.29 110.66 18.0127C111.202 18.7354 111.473 19.7314 111.473 21.001V21.1108ZM109.356 20.957C109.356 20.2197 109.224 19.6509 108.96 19.2505C108.702 18.8501 108.323 18.6499 107.825 18.6499C107.161 18.6499 106.705 18.9038 106.456 19.4116V22.6562C106.714 23.1787 107.176 23.4399 107.84 23.4399C108.851 23.4399 109.356 22.6123 109.356 20.957ZM119.925 21.1108C119.925 22.3315 119.646 23.3105 119.09 24.0479C118.538 24.7803 117.791 25.1465 116.849 25.1465C116.048 25.1465 115.401 24.8682 114.908 24.3115V28.0469H112.791V17.0752H114.754L114.827 17.8516C115.34 17.2363 116.009 16.9287 116.834 16.9287C117.811 16.9287 118.57 17.29 119.112 18.0127C119.654 18.7354 119.925 19.7314 119.925 21.001V21.1108ZM117.808 20.957C117.808 20.2197 117.676 19.6509 117.413 19.2505C117.154 18.8501 116.775 18.6499 116.277 18.6499C115.613 18.6499 115.157 18.9038 114.908 19.4116V22.6562C115.167 23.1787 115.628 23.4399 116.292 23.4399C117.303 23.4399 117.808 22.6123 117.808 20.957ZM120.914 20.9644C120.914 20.1782 121.065 19.4775 121.368 18.8623C121.67 18.2471 122.105 17.771 122.671 17.4341C123.243 17.0972 123.904 16.9287 124.656 16.9287C125.726 16.9287 126.597 17.2559 127.271 17.9102C127.95 18.5645 128.328 19.4531 128.406 20.5762L128.421 21.1182C128.421 22.334 128.082 23.3105 127.403 24.0479C126.724 24.7803 125.813 25.1465 124.671 25.1465C123.528 25.1465 122.615 24.7803 121.932 24.0479C121.253 23.3154 120.914 22.3193 120.914 21.0596V20.9644ZM123.03 21.1182C123.03 21.8701 123.172 22.4463 123.455 22.8467C123.738 23.2422 124.144 23.4399 124.671 23.4399C125.184 23.4399 125.584 23.2446 125.872 22.854C126.16 22.4585 126.304 21.8286 126.304 20.9644C126.304 20.2271 126.16 19.6558 125.872 19.2505C125.584 18.8452 125.179 18.6426 124.656 18.6426C124.139 18.6426 123.738 18.8452 123.455 19.2505C123.172 19.6509 123.03 20.2734 123.03 21.1182ZM134.178 19.0601C133.89 19.021 133.636 19.0015 133.416 19.0015C132.615 19.0015 132.09 19.2725 131.841 19.8145V25H129.725V17.0752H131.724L131.783 18.02C132.208 17.2925 132.796 16.9287 133.548 16.9287C133.782 16.9287 134.002 16.9604 134.207 17.0239L134.178 19.0601ZM138.104 15.127V17.0752H139.458V18.6279H138.104V22.583C138.104 22.876 138.16 23.0859 138.272 23.2129C138.384 23.3398 138.599 23.4033 138.917 23.4033C139.151 23.4033 139.358 23.3862 139.539 23.3521V24.9561C139.124 25.083 138.697 25.1465 138.257 25.1465C136.773 25.1465 136.016 24.397 135.987 22.8979V18.6279H134.83V17.0752H135.987V15.127H138.104ZM148.665 22.8101C148.665 22.5513 148.536 22.3486 148.277 22.2021C148.023 22.0508 147.613 21.9165 147.046 21.7993C145.162 21.4038 144.219 20.603 144.219 19.397C144.219 18.6938 144.51 18.1079 145.091 17.6392C145.677 17.1655 146.441 16.9287 147.383 16.9287C148.389 16.9287 149.192 17.1655 149.793 17.6392C150.398 18.1128 150.701 18.728 150.701 19.4849H148.584C148.584 19.1821 148.487 18.9331 148.292 18.7378C148.096 18.5376 147.791 18.4375 147.376 18.4375C147.02 18.4375 146.744 18.5181 146.548 18.6792C146.353 18.8403 146.255 19.0454 146.255 19.2944C146.255 19.5288 146.365 19.7192 146.585 19.8657C146.81 20.0073 147.186 20.1318 147.713 20.2393C148.24 20.3418 148.685 20.459 149.046 20.5908C150.164 21.001 150.723 21.7114 150.723 22.7222C150.723 23.4448 150.413 24.0308 149.793 24.48C149.173 24.9243 148.372 25.1465 147.391 25.1465C146.727 25.1465 146.136 25.0293 145.618 24.7949C145.105 24.5557 144.703 24.231 144.41 23.8208C144.117 23.4058 143.97 22.959 143.97 22.4805H145.977C145.997 22.8564 146.136 23.1445 146.395 23.3447C146.653 23.5449 147 23.645 147.435 23.645C147.84 23.645 148.145 23.5693 148.35 23.418C148.56 23.2617 148.665 23.0591 148.665 22.8101ZM155.74 25.1465C154.578 25.1465 153.631 24.79 152.898 24.0771C152.171 23.3643 151.807 22.4146 151.807 21.228V21.0229C151.807 20.2271 151.961 19.5166 152.269 18.8916C152.576 18.2617 153.011 17.7783 153.572 17.4414C154.139 17.0996 154.783 16.9287 155.506 16.9287C156.59 16.9287 157.442 17.2705 158.062 17.9541C158.687 18.6377 159 19.6069 159 20.8618V21.7261H153.953C154.021 22.2437 154.227 22.6587 154.568 22.9712C154.915 23.2837 155.352 23.4399 155.879 23.4399C156.695 23.4399 157.332 23.1445 157.791 22.5537L158.831 23.7183C158.514 24.1675 158.084 24.519 157.542 24.7729C157 25.022 156.399 25.1465 155.74 25.1465ZM155.499 18.6426C155.079 18.6426 154.737 18.7842 154.473 19.0674C154.214 19.3506 154.048 19.7559 153.975 20.2832H156.919V20.1147C156.91 19.646 156.783 19.2847 156.539 19.0308C156.294 18.772 155.948 18.6426 155.499 18.6426ZM164.661 19.0601C164.373 19.021 164.119 19.0015 163.899 19.0015C163.099 19.0015 162.574 19.2725 162.325 19.8145V25H160.208V17.0752H162.208L162.266 18.02C162.691 17.2925 163.279 16.9287 164.031 16.9287C164.266 16.9287 164.485 16.9604 164.69 17.0239L164.661 19.0601ZM168.785 22.4146L170.257 17.0752H172.469L169.795 25H167.774L165.101 17.0752H167.312L168.785 22.4146ZM176.951 25.1465C175.789 25.1465 174.842 24.79 174.109 24.0771C173.382 23.3643 173.018 22.4146 173.018 21.228V21.0229C173.018 20.2271 173.172 19.5166 173.479 18.8916C173.787 18.2617 174.222 17.7783 174.783 17.4414C175.35 17.0996 175.994 16.9287 176.717 16.9287C177.801 16.9287 178.653 17.2705 179.273 17.9541C179.898 18.6377 180.21 19.6069 180.21 20.8618V21.7261H175.164C175.232 22.2437 175.438 22.6587 175.779 22.9712C176.126 23.2837 176.563 23.4399 177.09 23.4399C177.906 23.4399 178.543 23.1445 179.002 22.5537L180.042 23.7183C179.725 24.1675 179.295 24.519 178.753 24.7729C178.211 25.022 177.61 25.1465 176.951 25.1465ZM176.709 18.6426C176.29 18.6426 175.948 18.7842 175.684 19.0674C175.425 19.3506 175.259 19.7559 175.186 20.2832H178.13V20.1147C178.121 19.646 177.994 19.2847 177.75 19.0308C177.505 18.772 177.159 18.6426 176.709 18.6426ZM185.872 19.0601C185.584 19.021 185.33 19.0015 185.11 19.0015C184.31 19.0015 183.785 19.2725 183.536 19.8145V25H181.419V17.0752H183.418L183.477 18.02C183.902 17.2925 184.49 16.9287 185.242 16.9287C185.477 16.9287 185.696 16.9604 185.901 17.0239L185.872 19.0601Z" fill="white"/>
</g>
<g filter="url(#filter1_d)">
<path fill-rule="evenodd" clip-rule="evenodd" d="M13 11.75C13 11.0207 13.2766 10.3212 13.7688 9.80546C14.2611 9.28973 14.9288 9 15.625 9H31.375C32.0712 9 32.7389 9.28973 33.2312 9.80546C33.7234 10.3212 34 11.0207 34 11.75V28.25C34 28.9793 33.7234 29.6788 33.2312 30.1945C32.7389 30.7103 32.0712 31 31.375 31H15.625C14.9288 31 14.2611 30.7103 13.7688 30.1945C13.2766 29.6788 13 28.9793 13 28.25V11.75ZM24.7206 18.0585L21.715 18.4531L21.6074 18.9756L22.198 19.0897C22.5839 19.186 22.66 19.3317 22.576 19.7346L21.6074 24.5031C21.3527 25.7365 21.7452 26.3167 22.6679 26.3167C23.3832 26.3167 24.214 25.9703 24.5907 25.4945L24.7062 24.9225C24.4437 25.1645 24.0604 25.2607 23.8058 25.2607C23.4449 25.2607 23.3136 24.9954 23.4068 24.5279L24.7206 18.0585ZM23.5 16.5625C23.8481 16.5625 24.1819 16.4176 24.4281 16.1598C24.6742 15.9019 24.8125 15.5522 24.8125 15.1875C24.8125 14.8228 24.6742 14.4731 24.4281 14.2152C24.1819 13.9574 23.8481 13.8125 23.5 13.8125C23.1519 13.8125 22.8181 13.9574 22.5719 14.2152C22.3258 14.4731 22.1875 14.8228 22.1875 15.1875C22.1875 15.5522 22.3258 15.9019 22.5719 16.1598C22.8181 16.4176 23.1519 16.5625 23.5 16.5625Z" fill="white"/>
</g>
<defs>
<filter id="filter0_d" x="49.2085" y="13.9331" width="140.693" height="22.1138" filterUnits="userSpaceOnUse" color-interpolation-filters="sRGB">
<feFlood flood-opacity="0" result="BackgroundImageFix"/>
<feColorMatrix in="SourceAlpha" type="matrix" values="0 0 0 0 0 0 0 0 0 0 0 0 0 0 0 0 0 0 127 0"/>
<feOffset dy="4"/>
<feGaussianBlur stdDeviation="2"/>
<feColorMatrix type="matrix" values="0 0 0 0 0 0 0 0 0 0 0 0 0 0 0 0 0 0 0.25 0"/>
<feBlend mode="normal" in2="BackgroundImageFix" result="effect1_dropShadow"/>
<feBlend mode="normal" in="SourceGraphic" in2="effect1_dropShadow" result="shape"/>
</filter>
<filter id="filter1_d" x="9" y="9" width="29" height="30" filterUnits="userSpaceOnUse" color-interpolation-filters="sRGB">
<feFlood flood-opacity="0" result="BackgroundImageFix"/>
<feColorMatrix in="SourceAlpha" type="matrix" values="0 0 0 0 0 0 0 0 0 0 0 0 0 0 0 0 0 0 127 0"/>
<feOffset dy="4"/>
<feGaussianBlur stdDeviation="2"/>
<feColorMatrix type="matrix" values="0 0 0 0 0 0 0 0 0 0 0 0 0 0 0 0 0 0 0.25 0"/>
<feBlend mode="normal" in2="BackgroundImageFix" result="effect1_dropShadow"/>
<feBlend mode="normal" in="SourceGraphic" in2="effect1_dropShadow" result="shape"/>
</filter>
</defs>
</svg>
