<?xml version="1.0" standalone="no"?>
<!DOCTYPE svg PUBLIC "-//W3C//DTD SVG 20010904//EN"
 "http://www.w3.org/TR/2001/REC-SVG-20010904/DTD/svg10.dtd">
<svg version="1.0" xmlns="http://www.w3.org/2000/svg"
 width="144.000000pt" height="144.000000pt" viewBox="0 0 144.000000 144.000000"
 preserveAspectRatio="xMidYMid meet">
<metadata>
Created by potrace 1.11, written by Peter Selinger 2001-2013
</metadata>
<g transform="translate(0.000000,144.000000) scale(0.100000,-0.100000)"
fill="#000000" stroke="none">
<path d="M0 720 l0 -720 720 0 720 0 0 720 0 720 -720 0 -720 0 0 -720z m601
308 c63 -31 84 -63 69 -103 -15 -39 -37 -41 -99 -9 -108 54 -211 42 -267 -32
-27 -34 -29 -45 -32 -133 -3 -84 0 -102 20 -141 38 -74 127 -106 237 -84 l31
7 0 68 0 69 -48 0 c-77 0 -117 44 -76 84 12 13 38 16 119 16 137 0 139 -2 134
-169 -3 -98 -7 -122 -22 -139 -27 -29 -107 -46 -217 -47 -88 0 -101 3 -163 33
-110 55 -160 141 -161 282 -2 167 70 274 214 321 14 5 66 7 115 6 75 -2 99 -6
146 -29z m615 1 c27 -13 59 -39 71 -58 43 -65 23 -164 -42 -207 l-25 -16 32
-17 c38 -20 78 -90 78 -136 -1 -43 -33 -109 -66 -132 -16 -12 -47 -26 -69 -32
-45 -12 -343 -15 -362 -3 -28 17 -33 70 -33 315 0 271 4 295 50 309 14 4 91 6
171 4 131 -3 152 -5 195 -27z"/>
<path d="M940 875 l0 -75 94 0 c79 0 97 3 120 21 27 21 34 56 16 89 -14 27
-64 40 -151 40 l-79 0 0 -75z"/>
<path d="M940 611 l0 -81 104 0 c117 0 141 11 152 66 5 24 0 37 -19 60 -24 28
-28 29 -131 32 l-106 4 0 -81z"/>
</g>
</svg>
