<?xml version="1.0" standalone="no"?>
<!DOCTYPE svg PUBLIC "-//W3C//DTD SVG 20010904//EN"
 "http://www.w3.org/TR/2001/REC-SVG-20010904/DTD/svg10.dtd">
<svg version="1.0" xmlns="http://www.w3.org/2000/svg"
 width="512.000000pt" height="512.000000pt" viewBox="0 0 512.000000 512.000000"
 preserveAspectRatio="xMidYMid meet">
<metadata>
Created by potrace 1.14, written by Peter Selinger 2001-2017
</metadata>
<g transform="translate(0.000000,512.000000) scale(0.100000,-0.100000)"
fill="#000000" stroke="none">
<path d="M0 2560 l0 -2560 2560 0 2560 0 0 2560 0 2560 -2560 0 -2560 0 0
-2560z m1825 1214 c234 -38 497 -173 553 -284 43 -85 23 -199 -47 -264 -24
-23 -42 -30 -83 -34 -49 -4 -61 0 -138 42 -247 134 -325 158 -515 159 -148 1
-232 -16 -330 -64 -199 -98 -302 -295 -321 -615 -16 -260 44 -503 160 -648 40
-50 143 -123 207 -147 160 -61 402 -66 647 -13 l32 6 0 249 0 249 -178 0
c-165 0 -181 2 -222 23 -67 34 -85 65 -85 147 0 76 16 107 74 147 44 30 124
35 451 31 233 -3 280 -6 305 -20 40 -22 81 -66 94 -101 7 -18 11 -163 11 -405
0 -417 -7 -484 -57 -557 -69 -100 -358 -177 -718 -191 -658 -26 -1110 309
-1209 895 -21 123 -21 398 -1 514 71 406 308 700 671 830 199 72 457 90 699
51z m2214 -14 c128 -14 200 -34 307 -85 197 -95 303 -245 320 -451 17 -214
-95 -420 -279 -513 l-67 -34 54 -22 c89 -36 140 -71 200 -135 109 -119 151
-243 143 -425 -4 -86 -10 -125 -31 -179 -70 -184 -225 -312 -455 -374 l-96
-26 -549 -4 c-617 -4 -604 -5 -669 68 -24 26 -39 55 -47 91 -8 39 -10 311 -8
999 l3 945 25 44 c31 55 64 80 127 97 59 16 877 19 1022 4z"/>
<path d="M3350 3116 l0 -266 279 0 c153 0 303 4 332 10 89 16 159 58 194 114
28 46 30 56 30 141 0 85 -2 95 -30 141 -25 39 -44 56 -99 84 l-69 35 -318 3
-319 3 0 -265z"/>
<path d="M3350 2181 l0 -291 293 0 c304 0 391 8 467 41 104 46 144 123 139
262 -7 141 -64 217 -194 253 -49 14 -122 18 -382 21 l-323 5 0 -291z"/>
</g>
</svg>
